<?xml version="1.0" standalone="no"?>
<!DOCTYPE svg PUBLIC "-//W3C//DTD SVG 20010904//EN"
 "http://www.w3.org/TR/2001/REC-SVG-20010904/DTD/svg10.dtd">
<svg version="1.0" xmlns="http://www.w3.org/2000/svg"
 width="700.000000pt" height="700.000000pt" viewBox="0 0 700.000000 700.000000"
 preserveAspectRatio="xMidYMid meet">
<metadata>
Created by potrace 1.11, written by Peter Selinger 2001-2013
</metadata>
<g transform="translate(0.000000,700.000000) scale(0.100000,-0.100000)"
fill="#000000" stroke="none">
<path d="M4797 6839 c-111 -17 -214 -94 -264 -198 -24 -48 -27 -68 -27 -146 1
-136 30 -190 168 -307 143 -121 311 -298 404 -423 115 -155 258 -431 325 -625
37 -106 81 -273 91 -344 4 -21 8 -41 10 -45 2 -3 7 -38 11 -76 4 -39 11 -94
15 -124 8 -65 5 -429 -4 -486 -4 -22 -14 -83 -22 -135 -65 -417 -259 -837
-545 -1175 -36 -43 -202 -210 -259 -261 -211 -188 -514 -363 -794 -460 -150
-52 -270 -81 -441 -109 -156 -25 -420 -35 -550 -20 -27 3 -75 8 -105 11 -255
26 -531 109 -785 234 -232 114 -423 247 -615 429 -101 95 -162 125 -265 129
-63 3 -92 -1 -135 -17 -79 -30 -152 -98 -192 -178 -29 -59 -32 -76 -32 -148 0
-114 34 -183 141 -287 401 -390 926 -675 1463 -796 130 -30 175 -38 250 -48
19 -2 49 -6 65 -8 77 -12 251 -24 343 -25 l52 -1 0 -175 0 -175 -717 0 c-569
0 -728 -3 -768 -14 -240 -63 -333 -357 -176 -554 44 -56 118 -101 191 -115 48
-10 452 -13 1848 -12 l1787 0 65 31 c104 50 168 126 195 232 45 173 -50 347
-223 412 -55 21 -70 21 -772 21 -394 1 -721 4 -726 7 -5 4 -9 96 -9 215 l0
208 40 10 c173 45 384 113 459 150 22 10 44 19 49 19 15 0 277 134 362 185
114 69 258 168 345 239 41 34 84 68 94 76 58 45 323 319 392 405 79 99 194
259 230 322 105 176 182 330 239 473 20 52 41 104 46 115 17 41 68 214 92 310
23 91 32 134 43 205 7 44 14 84 18 107 3 12 7 54 11 95 3 40 8 96 11 123 7 69
7 377 0 450 -3 33 -9 89 -12 125 -3 35 -8 73 -10 85 -2 11 -7 36 -10 55 -4 28
-22 124 -38 205 -42 212 -170 555 -289 775 -93 172 -253 413 -322 486 -5 6
-26 30 -45 55 -87 108 -356 361 -465 436 -64 44 -156 64 -238 52z"/>
<path d="M2997 6423 c-1 0 -36 -4 -78 -7 -42 -4 -85 -8 -95 -10 -11 -2 -41 -7
-69 -11 -83 -12 -214 -45 -325 -82 -125 -42 -418 -182 -428 -205 -2 -5 -8 -8
-14 -8 -16 0 -214 -148 -285 -214 -219 -202 -366 -399 -492 -661 -84 -176
-157 -416 -177 -586 -3 -30 -9 -58 -11 -63 -3 -4 -7 -90 -9 -190 -2 -162 9
-321 31 -431 13 -66 56 -237 65 -258 5 -12 21 -56 36 -97 100 -276 307 -585
523 -785 30 -27 63 -57 72 -66 25 -25 198 -152 244 -180 83 -50 103 -61 220
-119 112 -55 322 -132 390 -143 17 -3 50 -10 75 -15 62 -15 96 -21 160 -28 30
-3 64 -8 75 -10 33 -7 336 -6 400 1 52 5 123 16 204 31 21 4 64 15 182 44 121
31 365 141 506 228 335 207 600 501 780 864 35 70 63 134 63 141 0 7 4 17 9
23 20 21 87 262 112 404 25 143 33 424 16 577 -33 298 -139 603 -299 861 -58
94 -147 217 -189 262 -12 14 -43 47 -68 75 -112 122 -279 258 -432 351 -83 50
-287 154 -303 154 -3 0 -25 8 -49 19 -78 35 -296 94 -392 107 -27 3 -59 8 -70
10 -52 10 -371 25 -378 17z"/>
</g>
</svg>
